<svg xmlns="http://www.w3.org/2000/svg" xmlns:xlink="http://www.w3.org/1999/xlink" viewBox="0 0 64 64" version="1.1">
<g id="surface1">
<path style=" " d="M 29.5625 0 C 28.179688 0 26.984375 0.933594 26.652344 2.273438 L 24.921875 9.164063 C 24.039063 9.464844 23.148438 9.839844 22.28125 10.277344 L 16.175781 6.609375 C 14.992188 5.902344 13.488281 6.085938 12.511719 7.0625 L 9.0625 10.511719 C 8.085938 11.484375 7.902344 12.992188 8.609375 14.175781 L 12.269531 20.28125 C 11.835938 21.15625 11.464844 22.042969 11.171875 22.925781 L 4.273438 24.652344 C 2.933594 24.984375 2 26.183594 2 27.5625 L 2 32.4375 C 2 33.820313 2.933594 35.015625 4.273438 35.347656 L 11.164063 37.078125 C 11.464844 37.957031 11.835938 38.84375 12.277344 39.71875 L 8.609375 45.824219 C 7.902344 47.007813 8.085938 48.511719 9.0625 49.488281 L 12.511719 52.9375 C 13.488281 53.914063 14.992188 54.097656 16.175781 53.390625 L 22.28125 49.730469 C 23.148438 50.160156 24.035156 50.53125 24.925781 50.828125 L 26.652344 57.726563 C 26.984375 59.066406 28.183594 60 29.5625 60 L 32 60 L 32 61 C 32 62.652344 33.347656 64 35 64 L 61 64 C 62.652344 64 64 62.652344 64 61 L 64 37 C 64 35.523438 62.925781 34.300781 61.519531 34.050781 C 61.820313 33.582031 62 33.03125 62 32.4375 L 62 27.5625 C 62 26.179688 61.066406 24.984375 59.730469 24.652344 L 52.835938 22.921875 C 52.53125 22.035156 52.160156 21.148438 51.722656 20.28125 L 55.390625 14.175781 C 56.097656 12.992188 55.910156 11.488281 54.9375 10.511719 L 51.488281 7.0625 C 50.511719 6.085938 49.007813 5.902344 47.824219 6.609375 L 41.71875 10.269531 C 40.847656 9.835938 39.957031 9.464844 39.074219 9.167969 L 37.347656 2.273438 C 37.015625 0.933594 35.816406 0 34.4375 0 Z M 29.5625 2 L 34.4375 2 C 34.898438 2 35.296875 2.3125 35.410156 2.757813 L 37.136719 9.65625 C 37.300781 10.3125 37.785156 10.835938 38.433594 11.058594 C 39.230469 11.328125 40.035156 11.667969 40.828125 12.0625 C 41.445313 12.367188 42.160156 12.339844 42.75 11.988281 L 48.855469 8.324219 C 49.25 8.085938 49.75 8.152344 50.074219 8.476563 L 53.523438 11.921875 C 53.847656 12.25 53.910156 12.75 53.671875 13.144531 L 50.011719 19.25 C 49.660156 19.835938 49.632813 20.554688 49.9375 21.171875 C 50.332031 21.960938 50.667969 22.765625 50.941406 23.566406 C 51.167969 24.214844 51.691406 24.703125 52.34375 24.863281 L 59.242188 26.589844 C 59.6875 26.703125 60 27.101563 60 27.5625 L 60 32.4375 C 60 32.898438 59.6875 33.296875 59.242188 33.40625 L 57.019531 33.964844 C 56.992188 33.972656 56.972656 33.992188 56.945313 34 L 45.417969 34 C 45.800781 32.710938 46 31.367188 46 30 C 46 23.535156 41.621094 17.945313 35.355469 16.40625 C 34.8125 16.277344 34.277344 16.601563 34.144531 17.136719 C 34.011719 17.671875 34.339844 18.214844 34.875 18.34375 C 40.246094 19.667969 44 24.460938 44 30 C 44 31.378906 43.757813 32.71875 43.300781 34 L 35 34 C 33.347656 34 32 35.347656 32 37 L 32 58 L 29.5625 58 C 29.101563 58 28.703125 57.6875 28.59375 57.242188 L 26.867188 50.347656 C 26.703125 49.691406 26.21875 49.164063 25.566406 48.941406 C 24.765625 48.667969 23.960938 48.332031 23.171875 47.9375 C 22.550781 47.628906 21.835938 47.660156 21.253906 48.011719 L 15.144531 51.671875 C 14.753906 51.910156 14.25 51.847656 13.925781 51.523438 L 10.476563 48.074219 C 10.152344 47.75 10.089844 47.246094 10.328125 46.855469 L 13.988281 40.746094 C 14.339844 40.160156 14.367188 39.445313 14.0625 38.828125 C 13.667969 38.03125 13.332031 37.226563 13.058594 36.433594 C 12.835938 35.78125 12.308594 35.296875 11.65625 35.132813 L 4.757813 33.40625 C 4.3125 33.296875 4 32.898438 4 32.4375 L 4 27.5625 C 4 27.101563 4.3125 26.703125 4.757813 26.59375 L 11.652344 24.867188 C 12.308594 24.703125 12.835938 24.21875 13.058594 23.566406 C 13.328125 22.773438 13.667969 21.96875 14.0625 21.171875 C 14.367188 20.554688 14.339844 19.839844 13.988281 19.253906 L 10.328125 13.144531 C 10.089844 12.753906 10.152344 12.25 10.476563 11.925781 L 13.921875 8.476563 C 14.25 8.152344 14.75 8.089844 15.144531 8.328125 L 21.25 11.988281 C 21.835938 12.339844 22.554688 12.363281 23.171875 12.0625 C 23.960938 11.667969 24.765625 11.332031 25.566406 11.058594 C 26.21875 10.835938 26.703125 10.308594 26.863281 9.65625 L 28.59375 2.757813 C 28.703125 2.3125 29.101563 2 29.5625 2 Z M 30.125 16.125 C 29.285156 16.234375 28.453125 16.425781 27.652344 16.6875 C 27.128906 16.859375 26.839844 17.425781 27.011719 17.949219 C 27.148438 18.371094 27.542969 18.640625 27.964844 18.640625 C 28.066406 18.640625 28.167969 18.625 28.273438 18.589844 C 28.960938 18.367188 29.671875 18.203125 30.390625 18.109375 C 30.9375 18.035156 31.320313 17.53125 31.25 16.984375 C 31.175781 16.433594 30.667969 16.050781 30.125 16.125 Z M 22.808594 19.808594 C 22.554688 19.808594 22.296875 19.90625 22.101563 20.101563 C 21.710938 20.492188 21.710938 21.125 22.101563 21.515625 L 23.515625 22.929688 C 23.710938 23.125 23.964844 23.222656 24.222656 23.222656 C 24.480469 23.222656 24.734375 23.125 24.929688 22.929688 C 25.320313 22.539063 25.320313 21.90625 24.929688 21.515625 L 23.515625 20.101563 C 23.320313 19.90625 23.0625 19.808594 22.808594 19.808594 Z M 32 22 C 27.589844 22 24 25.589844 24 30 C 24 33.046875 25.691406 35.789063 28.417969 37.15625 C 28.5625 37.226563 28.714844 37.261719 28.863281 37.261719 C 29.230469 37.261719 29.585938 37.058594 29.761719 36.707031 C 30.007813 36.214844 29.808594 35.613281 29.3125 35.367188 C 27.269531 34.34375 26 32.285156 26 30 C 26 26.691406 28.691406 24 32 24 C 35.308594 24 38 26.691406 38 30 C 38 30.195313 37.992188 30.394531 37.972656 30.585938 C 37.917969 31.136719 38.320313 31.621094 38.871094 31.675781 C 39.425781 31.71875 39.910156 31.324219 39.964844 30.777344 C 39.988281 30.519531 40 30.261719 40 30 C 40 25.589844 36.410156 22 32 22 Z M 20.035156 23.921875 C 19.648438 23.917969 19.273438 24.148438 19.109375 24.53125 C 18.894531 25.039063 19.132813 25.625 19.640625 25.84375 L 21.484375 26.625 C 21.613281 26.675781 21.742188 26.703125 21.875 26.703125 C 22.265625 26.703125 22.636719 26.472656 22.796875 26.09375 C 23.011719 25.585938 22.773438 24.996094 22.265625 24.78125 L 20.421875 24 C 20.296875 23.945313 20.167969 23.921875 20.035156 23.921875 Z M 32 28 C 30.894531 28 30 28.894531 30 30 C 30 31.105469 30.894531 32 32 32 C 33.105469 32 34 31.105469 34 30 C 34 28.894531 33.105469 28 32 28 Z M 19 29 C 18.445313 29 18 29.449219 18 30 C 18 30.550781 18.445313 31 19 31 L 21 31 C 21.554688 31 22 30.550781 22 30 C 22 29.449219 21.554688 29 21 29 Z M 21.816406 33.121094 C 21.6875 33.117188 21.554688 33.140625 21.425781 33.191406 L 19.574219 33.941406 C 19.058594 34.148438 18.8125 34.730469 19.019531 35.246094 C 19.175781 35.632813 19.550781 35.871094 19.949219 35.871094 C 20.074219 35.871094 20.199219 35.847656 20.324219 35.796875 L 22.175781 35.046875 C 22.6875 34.84375 22.933594 34.257813 22.730469 33.746094 C 22.574219 33.363281 22.207031 33.128906 21.816406 33.121094 Z M 35 36 L 44 36 C 44 36 44 36 44.003906 36 C 44.007813 36 44.007813 36 44.011719 36 L 61 36 C 61.550781 36 62 36.449219 62 37 L 62 38 L 34 38 L 34 37 C 34 36.449219 34.449219 36 35 36 Z M 24.21875 36.777344 C 23.964844 36.777344 23.710938 36.875 23.515625 37.070313 L 22.101563 38.484375 C 21.710938 38.875 21.710938 39.507813 22.101563 39.898438 C 22.296875 40.09375 22.550781 40.191406 22.808594 40.191406 C 23.066406 40.191406 23.320313 40.09375 23.515625 39.898438 L 24.929688 38.484375 C 25.320313 38.09375 25.320313 37.460938 24.929688 37.070313 C 24.734375 36.875 24.476563 36.777344 24.21875 36.777344 Z M 27.703125 39.125 C 27.316406 39.125 26.941406 39.351563 26.78125 39.734375 L 26 41.578125 C 25.78125 42.085938 26.019531 42.671875 26.53125 42.890625 C 26.65625 42.941406 26.789063 42.96875 26.921875 42.96875 C 27.308594 42.96875 27.679688 42.738281 27.839844 42.359375 L 28.621094 40.515625 C 28.839844 40.007813 28.601563 39.421875 28.09375 39.203125 C 27.96875 39.152344 27.835938 39.125 27.703125 39.125 Z M 34 40 L 62 40 L 62 61 C 62 61.550781 61.550781 62 61 62 L 35 62 C 34.449219 62 34 61.550781 34 61 Z M 45 44 C 44.746094 44 44.488281 44.097656 44.292969 44.292969 L 41 47.585938 L 39.707031 46.292969 C 39.316406 45.902344 38.683594 45.902344 38.292969 46.292969 C 37.902344 46.683594 37.902344 47.316406 38.292969 47.707031 L 40.292969 49.707031 C 40.488281 49.902344 40.742188 50 41 50 C 41.257813 50 41.511719 49.902344 41.707031 49.707031 L 45.707031 45.707031 C 46.097656 45.316406 46.097656 44.683594 45.707031 44.292969 C 45.511719 44.097656 45.253906 44 45 44 Z M 49 46 C 48.445313 46 48 46.449219 48 47 C 48 47.550781 48.445313 48 49 48 L 57 48 C 57.554688 48 58 47.550781 58 47 C 58 46.449219 57.554688 46 57 46 Z M 45 52 C 44.746094 52 44.488281 52.097656 44.292969 52.292969 L 41 55.585938 L 39.707031 54.292969 C 39.316406 53.902344 38.683594 53.902344 38.292969 54.292969 C 37.902344 54.683594 37.902344 55.316406 38.292969 55.707031 L 40.292969 57.707031 C 40.488281 57.902344 40.742188 58 41 58 C 41.257813 58 41.511719 57.902344 41.707031 57.707031 L 45.707031 53.707031 C 46.097656 53.316406 46.097656 52.683594 45.707031 52.292969 C 45.511719 52.097656 45.253906 52 45 52 Z M 49 54 C 48.445313 54 48 54.449219 48 55 C 48 55.550781 48.445313 56 49 56 L 53 56 C 53.554688 56 54 55.550781 54 55 C 54 54.449219 53.554688 54 53 54 Z "></path>
</g>
</svg>